<svg width="17" height="17" viewBox="0 0 17 17" fill="none" xmlns="http://www.w3.org/2000/svg">
<g id="Img" clip-path="url(#clip0_1_1316)">
<path id="Vector" d="M5.41502 9.245C5.55564 9.10455 5.74627 9.02566 5.94502 9.02566C6.14377 9.02566 6.33439 9.10455 6.47502 9.245L7.67002 10.439V4.5C7.67002 4.30109 7.74904 4.11032 7.88969 3.96967C8.03034 3.82902 8.22111 3.75 8.42002 3.75C8.61893 3.75 8.8097 3.82902 8.95035 3.96967C9.091 4.11032 9.17002 4.30109 9.17002 4.5V10.44L10.365 9.245C10.4337 9.17131 10.5165 9.11221 10.6085 9.07122C10.7005 9.03023 10.7998 9.00819 10.9005 9.00641C11.0012 9.00463 11.1012 9.02316 11.1946 9.06088C11.288 9.0986 11.3728 9.15474 11.4441 9.22596C11.5153 9.29718 11.5714 9.38201 11.6091 9.4754C11.6469 9.56879 11.6654 9.66882 11.6636 9.76952C11.6618 9.87023 11.6398 9.96954 11.5988 10.0615C11.5578 10.1535 11.4987 10.2363 11.425 10.305L8.42002 13.311L7.89202 12.783C7.89035 12.7813 7.88868 12.7797 7.88702 12.778L5.41502 10.305C5.27457 10.1644 5.19568 9.97375 5.19568 9.775C5.19568 9.57625 5.27457 9.38563 5.41502 9.245Z" fill="white"/>
<path id="Vector_2" d="M0.420044 8.5C0.420044 6.37827 1.2629 4.34344 2.76319 2.84315C4.26348 1.34285 6.29831 0.5 8.42004 0.5C10.5418 0.5 12.5766 1.34285 14.0769 2.84315C15.5772 4.34344 16.42 6.37827 16.42 8.5C16.42 10.6217 15.5772 12.6566 14.0769 14.1569C12.5766 15.6571 10.5418 16.5 8.42004 16.5C6.29831 16.5 4.26348 15.6571 2.76319 14.1569C1.2629 12.6566 0.420044 10.6217 0.420044 8.5ZM8.42004 2C6.69614 2 5.04284 2.68482 3.82385 3.90381C2.60486 5.12279 1.92004 6.77609 1.92004 8.5C1.92004 10.2239 2.60486 11.8772 3.82385 13.0962C5.04284 14.3152 6.69614 15 8.42004 15C10.144 15 11.7973 14.3152 13.0162 13.0962C14.2352 11.8772 14.92 10.2239 14.92 8.5C14.92 6.77609 14.2352 5.12279 13.0162 3.90381C11.7973 2.68482 10.144 2 8.42004 2Z" fill="white"/>
</g>
<defs>
<clipPath id="clip0_1_1316">
<rect width="16" height="16" fill="white" transform="translate(0.420044 0.5)"/>
</clipPath>
</defs>
</svg>
